<svg xmlns="http://www.w3.org/2000/svg" width="375" viewBox="0 0 375 375" height="375" version="1.0"><defs><clipPath id="a"><path d="M 11.59375 115.648438 L 83.59375 115.648438 L 83.59375 187.648438 L 11.59375 187.648438 Z M 11.59375 115.648438"/></clipPath></defs><g clip-path="url(#a)"><path fill="#05445E" d="M 82.074219 163.796875 C 81.320312 163.796875 80.710938 163.183594 80.710938 162.429688 L 80.710938 120.457031 L 57.539062 143.683594 C 57.007812 144.214844 56.144531 144.214844 55.609375 143.683594 C 55.078125 143.148438 55.078125 142.28125 55.609375 141.746094 L 81.109375 116.1875 C 81.5 115.792969 82.085938 115.675781 82.597656 115.890625 C 83.105469 116.101562 83.441406 116.601562 83.441406 117.152344 L 83.441406 162.429688 C 83.441406 163.183594 82.828125 163.796875 82.074219 163.796875 Z M 13.117188 187.648438 C 12.363281 187.648438 11.75 187.035156 11.75 186.28125 L 11.75 138.578125 C 11.75 138.023438 12.085938 137.523438 12.59375 137.3125 C 13.105469 137.101562 13.691406 137.21875 14.082031 137.609375 L 37.875 161.460938 C 38.40625 161.996094 38.40625 162.863281 37.875 163.394531 C 37.34375 163.929688 36.476562 163.929688 35.945312 163.394531 L 14.480469 141.878906 L 14.480469 186.28125 C 14.480469 187.035156 13.871094 187.648438 13.117188 187.648438 Z M 82.074219 187.648438 C 81.726562 187.648438 81.375 187.515625 81.109375 187.246094 L 12.152344 118.121094 C 11.617188 117.585938 11.617188 116.71875 12.152344 116.1875 C 12.683594 115.652344 13.546875 115.652344 14.082031 116.1875 L 83.039062 185.3125 C 83.574219 185.847656 83.574219 186.714844 83.039062 187.246094 C 82.773438 187.515625 82.421875 187.648438 82.074219 187.648438"/></g><path transform="matrix(.75 0 0 .75 98.007 147.737)" fill="none" d="M 11.235241 51.002359 C 12.011283 51.002359 12.417533 50.596109 12.417533 49.814859 L 12.417533 26.283608 L 25.006075 42.6534 C 25.526908 43.346109 26.162325 43.346109 26.683159 42.6534 L 39.328993 26.221108 L 39.328993 49.814859 C 39.328993 50.596109 39.735243 51.002359 40.516493 51.002359 L 46.115451 51.002359 C 46.896702 51.002359 47.302952 50.596109 47.302952 49.814859 L 47.302952 7.596106 C 47.302952 5.372148 45.740451 4.882565 44.412326 6.642981 L 25.844617 31.189858 L 7.334199 6.642981 C 5.980032 4.856523 4.448782 5.372148 4.448782 7.596106 L 4.448782 49.814859 C 4.448782 50.596109 4.849824 51.002359 5.631074 51.002359 Z M 88.183163 6.642981 C 87.516496 5.142981 86.276912 5.142981 85.584204 6.642981 L 66.469619 49.611734 C 66.089411 50.450276 66.469619 51.002359 67.334203 51.002359 L 73.714412 51.002359 C 74.349828 51.002359 74.839412 50.710693 75.073787 50.075276 L 77.584204 43.8409 L 96.209205 43.8409 L 98.72483 50.075276 C 98.953997 50.710693 99.44358 51.002359 100.078997 51.002359 L 106.433164 51.002359 C 107.328997 51.002359 107.672747 50.450276 107.328997 49.611734 Z M 86.912329 20.767982 L 93.584205 37.3409 L 80.214412 37.3409 Z M 151.448792 35.033608 C 156.29775 32.752358 158.839417 28.127358 158.839417 21.460691 C 158.839417 12.533607 154.245667 6.642981 142.032124 6.642981 L 127.651915 6.642981 C 126.870665 6.642981 126.469623 7.049231 126.469623 7.830481 L 126.469623 49.814859 C 126.469623 50.596109 126.870665 51.002359 127.651915 51.002359 L 133.396707 51.002359 C 134.177957 51.002359 134.584207 50.596109 134.584207 49.814859 L 134.584207 36.616942 L 143.474833 36.616942 L 150.261292 50.106526 C 150.552958 50.710693 150.954 51.002359 151.620667 51.002359 L 158.230042 51.002359 C 159.125876 51.002359 159.500876 50.424234 159.099834 49.585693 Z M 134.584207 13.83569 L 140.990458 13.83569 C 144.167541 13.83569 150.782125 13.892982 150.782125 21.517982 C 150.782125 29.37215 143.823791 29.455483 140.990458 29.455483 L 134.584207 29.455483 Z M 201.974837 52.038818 C 209.250879 52.038818 215.401921 49.294026 219.53213 44.762776 C 220.026921 44.241942 219.90713 43.695067 219.271713 43.205484 L 214.594629 39.913817 C 214.016504 39.450275 213.469629 39.533609 212.980046 40.054442 C 210.266504 42.799234 206.422754 44.502359 202.006087 44.502359 C 193.313378 44.502359 186.698794 38.236733 186.698794 28.794024 C 186.698794 19.377357 193.313378 13.142982 201.948795 13.142982 C 206.422754 13.142982 210.235254 14.846107 212.980046 17.590899 C 213.469629 18.111732 214.047754 18.195065 214.594629 17.731524 L 219.271713 14.413815 C 219.881088 13.924232 219.964421 13.346107 219.417546 12.794023 C 215.261296 8.288815 209.167546 5.606523 201.948795 5.606523 C 188.605044 5.606523 178.558169 14.903399 178.558169 28.820066 C 178.558169 42.741942 188.579002 52.038818 201.974837 52.038818 Z M 258.105049 6.642981 C 257.44359 5.142981 256.198799 5.142981 255.50609 6.642981 L 236.391506 49.611734 C 236.016506 50.450276 236.391506 51.002359 237.256089 51.002359 L 243.641506 51.002359 C 244.276923 51.002359 244.766506 50.710693 244.995673 50.075276 L 247.511298 43.8409 L 266.136299 43.8409 L 268.646716 50.075276 C 268.875883 50.710693 269.370674 51.002359 270.006091 51.002359 L 276.35505 51.002359 C 277.250883 51.002359 277.599842 50.450276 277.250883 49.611734 Z M 256.834215 20.767982 L 263.506091 37.3409 L 250.136298 37.3409 Z M 303.323802 51.002359 C 304.105052 51.002359 304.506093 50.596109 304.506093 49.814859 L 304.506093 36.387775 L 319.261303 36.387775 C 320.042553 36.387775 320.448803 35.981525 320.448803 35.205483 L 320.448803 30.700275 C 320.448803 29.919025 320.042553 29.517983 319.261303 29.517983 L 304.506093 29.517983 L 304.506093 13.83569 L 321.485261 13.83569 C 322.266511 13.83569 322.672761 13.403398 322.672761 12.653398 L 322.672761 7.830481 C 322.672761 7.049231 322.266511 6.642981 321.485261 6.642981 L 297.57901 6.642981 C 296.79776 6.642981 296.39151 7.049231 296.39151 7.830481 L 296.39151 49.814859 C 296.39151 50.596109 296.79776 51.002359 297.57901 51.002359 Z M 349.552971 51.002359 C 350.334221 51.002359 350.735263 50.596109 350.735263 49.814859 L 350.735263 7.830481 C 350.735263 7.049231 350.334221 6.642981 349.552971 6.642981 L 343.808179 6.642981 C 343.026929 6.642981 342.620679 7.049231 342.620679 7.830481 L 342.620679 49.814859 C 342.620679 50.596109 343.026929 51.002359 343.808179 51.002359 Z M 349.552971 51.002359" stroke="#05445E" stroke-width="2.218"/></svg>